<svg width="1512" height="588" viewBox="0 0 1512 588" fill="none" xmlns="http://www.w3.org/2000/svg">
<path d="M650.561 173.156C678.758 221.996 741.21 238.73 790.05 210.532C838.89 182.334 855.624 119.884 827.426 71.0442C799.229 22.2048 736.778 5.4712 687.939 33.6686L599.505 84.7258L650.561 173.156Z" fill="#F4EDD0"/>
<path d="M1498.1 173.156C1526.3 221.996 1588.75 238.73 1637.59 210.532C1686.43 182.334 1703.16 119.883 1674.96 71.044C1646.77 22.2047 1584.32 5.47108 1535.48 33.6685L1447.04 84.7256L1498.1 173.156Z" fill="#F4EDD0"/>
<path d="M178.66 17.8656C138.782 57.7432 138.783 122.398 178.66 162.276C218.538 202.153 283.192 202.153 323.069 162.276C362.946 122.399 362.946 57.7453 323.069 17.8681L250.863 -54.3376L178.66 17.8656Z" fill="#F4EDD0"/>
<path d="M1026.2 17.8657C986.319 57.7433 986.32 122.398 1026.2 162.276C1066.07 202.153 1130.73 202.153 1170.61 162.276C1210.48 122.399 1210.48 57.7454 1170.61 17.8682L1098.4 -54.3375L1026.2 17.8657Z" fill="#F4EDD0"/>
<path d="M569.905 224.215V19.9888H554.197C450.083 19.9888 365.681 104.39 365.681 208.504V224.215L569.905 224.215Z" fill="#F4EDD0"/>
<path d="M1417.44 224.215V19.9887H1401.73C1297.62 19.9887 1213.22 104.39 1213.22 208.504V224.215L1417.44 224.215Z" fill="#F4EDD0"/>
<path d="M137.633 586.858C137.633 643.254 183.351 688.971 239.746 688.971C296.141 688.971 341.859 643.254 341.859 586.86C341.859 530.465 296.142 484.748 239.747 484.748H137.633L137.633 586.858Z" fill="#F4EDD0"/>
<path d="M985.169 586.859C985.169 643.254 1030.89 688.972 1087.28 688.972C1143.68 688.972 1189.4 643.255 1189.4 586.86C1189.4 530.465 1143.68 484.748 1087.28 484.748H985.169V586.859Z" fill="#F4EDD0"/>
<path d="M297.594 321.245C257.716 361.122 257.716 425.777 297.594 465.655C337.471 505.532 402.125 505.532 442.002 465.655C481.88 425.778 481.88 361.124 442.002 321.247L369.797 249.041L297.594 321.245Z" fill="#F4EDD0"/>
<path d="M1145.13 321.245C1105.25 361.122 1105.25 425.777 1145.13 465.655C1185.01 505.532 1249.66 505.532 1289.54 465.655C1329.42 425.778 1329.42 361.124 1289.54 321.247L1217.33 249.042L1145.13 321.245Z" fill="#F4EDD0"/>
<path d="M137.478 438.986L137.478 234.759H121.769C17.655 234.759 -66.7462 319.161 -66.7462 423.275V438.986H137.478Z" fill="#F4EDD0"/>
<path d="M587.804 660.534V456.308H572.095C467.981 456.308 383.58 540.709 383.58 644.823V660.534H587.804Z" fill="#F4EDD0"/>
<path d="M1435.34 660.533V456.307H1419.63C1315.52 456.307 1231.12 540.709 1231.12 644.823V660.533H1435.34Z" fill="#F4EDD0"/>
<path d="M743.187 677.123L920.052 575.01L912.197 561.406C860.14 471.241 744.846 440.348 654.681 492.405L641.075 500.26L743.187 677.123Z" fill="#F4EDD0"/>
</svg>
