<svg width="336" height="648" viewBox="0 0 336 648" fill="none" xmlns="http://www.w3.org/2000/svg">
<path d="M84.9316 325.14C84.9316 389.439 137.057 441.563 201.355 441.563C265.653 441.563 317.777 389.439 317.777 325.141C317.777 260.844 265.654 208.72 201.356 208.72H84.9316L84.9316 325.14Z" fill="#8B4513"/>
<path d="M267.308 22.3045C221.842 67.7704 221.842 141.486 267.308 186.952C312.774 232.417 386.488 232.418 431.954 186.952C477.419 141.487 477.419 67.7729 431.954 22.3075L349.629 -60.0169L267.308 22.3045Z" fill="#8B4513"/>
<path d="M-96.7029 468.11C-142.169 513.576 -142.168 587.292 -96.7025 632.757C-51.2371 678.223 22.4775 678.223 67.9429 632.758C113.408 587.293 113.408 513.579 67.9429 468.113L-14.3815 385.789L-96.7029 468.11Z" fill="#8B4513"/>
<path d="M84.7549 156.545L84.7549 -76.3008L66.8452 -76.3008C-51.8591 -76.3008 -148.088 19.9281 -148.088 138.632L-148.088 156.545L84.7549 156.545Z" fill="#8B4513"/>
<path d="M349.37 703.376L349.37 470.531L331.46 470.531C212.756 470.531 116.527 566.76 116.527 685.464L116.527 703.376L349.37 703.376Z" fill="#8B4513"/>
</svg>
