<svg width="390" height="610" viewBox="0 0 390 610" fill="none" xmlns="http://www.w3.org/2000/svg">
<path d="M71.613 -75.3554C40.4393 -44.1817 40.4396 6.36123 71.6133 37.5349C102.787 68.7083 153.329 68.7086 184.502 37.5353C215.676 6.36192 215.676 -44.1801 184.502 -75.3534L128.057 -131.799L71.613 -75.3554Z" fill="#F4EDD0"/>
<path d="M377.463 85.9551V-73.6956H365.183C283.793 -73.6956 217.814 -7.71626 217.814 73.6734V85.9551L377.463 85.9551Z" fill="#F4EDD0"/>
<path d="M283.903 588.869C305.946 627.049 354.767 640.13 392.947 618.087C431.126 596.044 444.208 547.224 422.165 509.044C400.122 470.865 351.302 457.784 313.123 479.827L243.991 519.74L283.903 588.869Z" fill="#F4EDD0"/>
<path d="M-84.9964 467.473C-116.17 498.647 -116.17 549.19 -84.9961 580.364C-53.8227 611.537 -3.28036 611.537 27.893 580.364C59.0664 549.191 59.0664 498.649 27.893 467.475L-28.5527 411.029L-84.9964 467.473Z" fill="#F4EDD0"/>
<path d="M39.4189 253.849L39.4189 94.198H27.1391C-54.2505 94.198 -120.23 160.177 -120.23 241.567V253.849L39.4189 253.849Z" fill="#F4EDD0"/>
<path d="M220.853 628.784L220.853 469.133H208.573C127.183 469.133 61.2038 535.112 61.2038 616.502V628.784H220.853Z" fill="#F4EDD0"/>
<path d="M391.454 427.041V267.39H379.174C297.785 267.39 231.805 333.369 231.805 414.759V427.041H391.454Z" fill="#F4EDD0"/>
</svg>
